<svg version="1.1" id="Layer_1" xmlns="http://www.w3.org/2000/svg" xmlns:xlink="http://www.w3.org/1999/xlink" x="0px" y="0px"
	 width="152" viewBox="0 0 654 416" enable-background="new 0 0 654 416" xml:space="preserve">
<path fill="#FF9BA2" opacity="1.000000" stroke="none" 
	d="
M654.000000,417.000000 
	C601.312439,417.000000 548.624878,417.000000 495.372925,416.662201 
	C493.610291,415.520630 492.501007,414.511505 491.198975,413.947205 
	C484.033691,410.841827 476.714722,408.073120 469.644653,404.769257 
	C446.742065,394.066833 424.640106,381.997070 403.560822,367.912567 
	C380.116821,352.248138 358.469971,334.454163 338.498016,314.718719 
	C326.001831,302.370483 314.373688,289.048523 303.259369,275.426483 
	C293.936951,264.000671 285.881683,251.536377 277.389771,239.444519 
	C276.504059,238.183334 276.462311,236.329437 276.425323,234.761688 
	C287.178650,233.926743 291.856140,225.101242 286.306335,216.373352 
	C284.381836,213.346786 281.345673,211.049942 279.108459,208.191879 
	C277.428040,206.045166 275.933960,203.643692 274.945160,201.124725 
	C274.608307,200.266541 275.781616,198.286972 276.794006,197.603058 
	C277.538666,197.100021 279.143158,197.878738 280.366547,198.073547 
	C282.725342,198.449188 285.085571,198.815826 287.445221,199.186203 
	C286.415375,196.629593 286.057373,193.316895 284.212463,191.677567 
	C280.636597,188.500153 275.985107,189.128677 272.050018,191.347748 
	C267.829407,193.727844 266.227173,198.132690 267.471436,202.518875 
	C268.505890,206.165451 270.962311,209.507629 273.216400,212.680984 
	C275.407806,215.766098 278.451019,218.269760 280.463226,221.445084 
	C281.121368,222.483643 279.718781,224.828079 279.258606,226.575302 
	C277.770935,226.003220 275.553497,225.855667 274.928711,224.781647 
	C272.827850,221.170151 270.202850,221.826202 266.983765,222.830963 
	C262.140869,214.119385 257.565918,205.645218 253.400726,197.113708 
	C256.389648,196.980927 259.308380,197.527420 259.364380,193.450333 
	C259.421906,189.261490 256.448486,189.952118 253.885941,189.871490 
	C252.252502,189.820099 250.621185,189.700790 248.966599,189.258698 
	C248.567795,187.813278 248.246994,186.698059 247.806412,185.632370 
	C242.040131,171.684143 235.198410,158.072662 230.727890,143.722061 
	C224.146347,122.594986 218.637558,101.079872 213.799072,79.477570 
	C208.026733,53.705849 205.201065,27.496620 206.000000,1.000000 
	C249.020889,1.000000 292.041779,1.000000 335.514282,1.370918 
	C335.440948,3.606019 334.399323,5.495647 334.489624,7.329540 
	C334.743988,12.495073 335.720123,17.627014 335.935181,22.792038 
	C336.204834,29.268305 335.941376,35.765232 336.043091,42.251118 
	C336.068176,43.851055 336.065460,46.229301 337.021362,46.898327 
	C340.618134,49.415657 339.948730,52.912342 340.003021,56.337639 
	C340.052032,59.431370 339.355621,62.708782 342.819214,64.791046 
	C343.409210,65.145729 343.229431,66.807159 343.375671,67.868973 
	C343.887054,71.581879 343.292084,76.051704 345.191345,78.801628 
	C347.154022,81.643364 348.603149,84.177063 347.909760,87.272835 
	C346.447266,93.802635 351.496857,98.195381 353.360291,103.483337 
	C354.469147,106.629990 356.222595,109.567627 355.943207,113.006584 
	C355.563141,117.684601 357.280090,121.277718 360.357758,124.663116 
	C361.998444,126.467819 362.906830,128.950943 364.085602,131.159958 
	C365.955383,134.663895 367.728973,138.219666 369.627930,141.707397 
	C371.671356,145.460526 374.008362,149.066315 375.855865,152.910110 
	C377.707886,156.763260 378.601379,161.150391 380.834015,164.730347 
	C384.293854,170.278168 388.102692,175.751892 392.602112,180.454758 
	C395.364929,183.342438 396.359833,186.037872 395.578308,189.782028 
	C394.421936,191.311935 393.045685,192.716217 393.025299,194.139923 
	C392.853577,206.136261 392.972961,218.136429 392.898682,230.134796 
	C392.881989,232.831024 393.402069,234.816299 396.583313,234.766434 
	C399.821838,234.715668 400.161133,232.560226 400.100586,229.961029 
	C400.002533,225.749832 400.074158,221.534698 400.074158,217.321228 
	C400.627808,217.152023 401.181458,216.982834 401.735107,216.813644 
	C402.625183,217.920090 403.786438,218.903427 404.355011,220.155807 
	C406.143951,224.096252 407.414825,228.304611 409.528381,232.046600 
	C410.235321,233.298248 412.874023,233.458832 414.629669,234.118179 
	C415.098267,232.499283 416.261963,230.699234 415.896667,229.297638 
	C415.024017,225.949158 413.640656,222.681961 412.068329,219.582428 
	C410.548981,216.587311 411.088715,214.549622 414.360596,212.992538 
	C419.124390,213.756531 424.487762,213.066483 424.520569,219.955795 
	C424.522247,220.304626 425.533112,220.648636 426.070892,221.405457 
	C425.432404,224.854935 424.422607,227.883575 424.339020,230.937561 
	C424.303680,232.229996 425.977478,234.129288 427.323761,234.708511 
	C428.269226,235.115295 430.319092,234.080627 431.243134,233.095963 
	C432.170929,232.107239 432.314819,230.382904 433.196594,229.000824 
	C435.018341,229.944275 437.478302,230.683182 437.682587,231.825455 
	C438.336304,235.481033 440.217865,236.916336 443.695953,237.243683 
	C444.903290,237.357315 446.704285,238.114120 447.076660,239.041794 
	C449.864258,245.986359 460.076874,245.050781 461.764496,253.037766 
	C461.811493,253.260193 462.296082,253.397415 462.584503,253.560471 
	C468.015594,256.630615 474.498810,258.690155 478.636047,263.001251 
	C485.000000,269.632629 493.701935,271.753784 500.704407,276.919189 
	C503.658264,279.098114 507.328186,280.324768 510.714294,281.894348 
	C514.675964,283.730682 518.760193,285.316711 522.652039,287.286407 
	C528.140564,290.064240 533.085999,294.093628 539.701538,294.099335 
	C540.619812,294.100128 541.635925,294.587555 542.439880,295.107635 
	C548.583984,299.082672 554.934326,302.321991 562.571533,302.077179 
	C563.948669,302.033020 565.363892,302.846283 566.744690,303.313446 
	C569.341125,304.191956 572.018188,304.904602 574.497742,306.043274 
	C582.839661,309.874084 591.734375,309.938446 600.622681,310.234650 
	C601.361450,310.259277 602.044922,311.049744 602.810303,311.332153 
	C605.268799,312.239380 607.713440,313.662689 610.235291,313.834900 
	C620.179016,314.514099 630.186829,313.014832 640.020081,316.778992 
	C644.062256,318.326355 649.197510,317.018341 653.887207,317.474731 
	C653.959229,350.960236 653.979614,383.980103 654.000000,417.000000 
M334.464233,190.663925 
	C334.192963,191.077164 333.751343,191.461395 333.675293,191.907867 
	C331.500732,204.672913 329.262909,217.429520 327.383087,230.238556 
	C327.206909,231.439011 329.327820,232.976593 330.382233,234.357651 
	C331.839661,233.142929 334.079559,232.184204 334.579437,230.656235 
	C335.425812,228.069046 335.305389,225.575577 339.156738,225.452133 
	C343.123169,225.325027 343.381897,227.968994 343.769714,230.559860 
	C344.281738,233.980667 346.202942,235.724197 349.125244,233.858719 
	C350.435822,233.022110 351.019867,229.838364 350.728119,227.901245 
	C349.097046,217.070480 346.786011,206.335861 345.369690,195.481949 
	C344.763458,190.835953 342.876282,189.429642 338.659607,189.978897 
	C337.511353,190.128448 336.347229,190.155823 334.464233,190.663925 
M383.928711,220.108505 
	C383.944885,211.618317 384.065521,203.125854 383.879974,194.640076 
	C383.846924,193.128174 382.876770,190.732407 381.761658,190.324722 
	C378.868652,189.267014 376.717987,190.079041 376.745941,194.035309 
	C376.808167,202.847687 376.930664,211.696609 376.155792,220.453430 
	C375.947205,222.810516 372.606598,224.890457 370.703674,227.097610 
	C369.301453,224.911545 367.596680,222.853012 366.602661,220.494858 
	C365.932526,218.904999 366.176758,216.892822 366.165710,215.068634 
	C366.125458,208.409760 366.169098,201.750397 366.139648,195.091415 
	C366.128845,192.651703 366.702454,189.983627 362.669312,189.931931 
	C358.778687,189.882095 358.966492,192.266815 358.977386,194.877914 
	C359.010773,202.868729 358.920013,210.860687 359.019531,218.850433 
	C359.132416,227.914200 363.589996,234.086365 370.331818,234.782516 
	C377.026703,235.473816 382.132996,230.282394 383.928711,220.108505 
M304.079254,227.315887 
	C304.079224,227.814484 304.094299,228.313629 304.076630,228.811600 
	C303.972870,231.736511 303.777130,234.791672 308.030792,234.706055 
	C311.966675,234.626816 311.710999,231.722412 311.702942,228.990997 
	C311.679413,221.013367 311.695038,213.035629 311.695740,205.057922 
	C311.696381,197.947495 311.729126,198.120651 318.634399,196.823563 
	C319.922058,196.581696 321.424133,194.431442 321.681213,192.961487 
	C321.822601,192.152939 319.609253,190.076401 318.399963,190.028580 
	C311.264587,189.746399 304.106049,189.743179 296.971985,190.043182 
	C295.805054,190.092270 293.667236,192.321182 293.835785,193.176666 
	C294.116943,194.604004 295.685242,196.361328 297.098938,196.843079 
	C299.139404,197.538437 301.526062,197.218079 304.079529,197.347000 
	C304.079529,207.434845 304.079529,216.896393 304.079254,227.315887 
z"/>
<path fill="#FF969D" opacity="1.000000" stroke="none" 
	d="
M276.028961,234.750534 
	C276.462311,236.329437 276.504059,238.183334 277.389771,239.444519 
	C285.881683,251.536377 293.936951,264.000671 303.259369,275.426483 
	C314.373688,289.048523 326.001831,302.370483 338.498016,314.718719 
	C358.469971,334.454163 380.116821,352.248138 403.560822,367.912567 
	C424.640106,381.997070 446.742065,394.066833 469.644653,404.769257 
	C476.714722,408.073120 484.033691,410.841827 491.198975,413.947205 
	C492.501007,414.511505 493.610291,415.520630 494.904297,416.662201 
	C405.312439,417.000000 315.624878,417.000000 225.453705,416.638184 
	C224.286636,414.992859 223.828613,413.506195 222.883957,412.458191 
	C215.655182,404.438629 207.920288,396.838684 201.124161,388.473450 
	C187.442032,371.632385 173.683151,354.799347 161.043777,337.182495 
	C150.812057,322.921539 141.197327,308.029663 133.052200,292.503143 
	C120.175392,267.956970 107.803909,243.047897 97.033134,217.526596 
	C88.866577,198.175980 83.019173,177.781509 77.084442,157.574112 
	C72.088577,140.563492 67.777702,123.283737 64.416267,105.881172 
	C61.371124,90.116089 59.562645,74.067551 58.037426,58.065025 
	C56.228657,39.087475 55.306442,20.025427 54.000000,1.000000 
	C104.354225,1.000000 154.708450,1.000000 205.531342,1.000000 
	C205.201065,27.496620 208.026733,53.705849 213.799072,79.477570 
	C218.637558,101.079872 224.146347,122.594986 230.727890,143.722061 
	C235.198410,158.072662 242.040131,171.684143 247.806412,185.632370 
	C248.246994,186.698059 248.567795,187.813278 248.525208,189.336670 
	C243.195877,189.091660 241.391541,190.939423 241.654694,196.122131 
	C242.100479,204.902130 241.779114,213.721130 241.779449,222.523727 
	C241.779938,235.269653 241.779648,235.269394 254.543198,234.898697 
	C255.041153,234.884232 255.750214,235.094940 256.002014,234.842621 
	C257.230591,233.611374 259.198059,232.282227 259.235291,230.941391 
	C259.269867,229.696945 257.418274,227.763702 256.000305,227.267227 
	C253.966003,226.554947 251.571381,226.871689 249.363251,226.750916 
	C249.363251,222.906754 249.363251,219.674393 249.363251,216.492432 
	C252.366409,215.520538 256.709381,217.251007 256.716766,212.239594 
	C256.724548,206.949921 251.744507,209.960846 248.988556,207.725143 
	C248.988556,205.578812 249.115417,202.961868 248.956009,200.362488 
	C248.762192,197.201752 250.446304,196.715103 252.990967,197.171036 
	C257.565918,205.645218 262.140869,214.119385 266.937439,223.209656 
	C267.317047,229.739578 270.870544,232.896576 276.028961,234.750534 
M181.234772,199.959686 
	C171.400665,199.959686 161.566544,199.959686 150.324707,199.959686 
	C151.710541,202.760193 152.776794,205.259949 154.149292,207.578430 
	C155.233597,209.410080 157.167419,210.839554 157.895966,212.761505 
	C159.800613,217.786087 161.326157,222.961105 162.818588,228.129364 
	C163.108994,229.135025 162.722183,230.430527 162.380783,231.507721 
	C161.027588,235.777130 159.568420,240.012955 157.940353,244.884171 
	C163.262650,244.884171 167.733109,244.740707 172.189774,244.926804 
	C176.191650,245.093887 177.776550,243.421051 178.079147,239.430115 
	C179.057800,226.522690 180.327286,213.637329 181.234772,199.959686 
M210.177490,190.235931 
	C209.550629,191.829407 208.401703,193.415955 208.380432,195.017471 
	C208.225967,206.651306 208.333084,218.288330 208.273605,229.923935 
	C208.260117,232.561584 208.745743,234.633530 211.886581,234.716125 
	C215.185547,234.802902 216.070511,232.895844 215.959244,229.893692 
	C215.803757,225.697739 215.920059,221.491730 215.920059,217.290024 
	C216.480179,217.122864 217.040283,216.955704 217.600403,216.788544 
	C218.527664,218.092484 219.688675,219.290482 220.336884,220.720886 
	C222.049973,224.501129 223.240463,228.553848 225.284882,232.128708 
	C225.990311,233.362198 228.601654,233.505722 230.342392,234.147156 
	C230.841614,232.522141 231.959488,230.789062 231.698853,229.296738 
	C231.280106,226.899017 230.070602,224.601456 228.977661,222.368042 
	C227.213287,218.762527 226.714066,215.903625 229.646942,212.070160 
	C233.529572,206.995255 232.959137,200.823090 229.987656,195.094437 
	C227.408081,190.121353 222.888885,189.693481 218.028824,189.965942 
	C215.708191,190.096039 213.376495,190.029282 210.177490,190.235931 
M156.878159,220.520508 
	C156.326538,213.670502 153.063278,208.186874 146.232834,207.236038 
	C138.770065,206.197159 130.958298,206.190659 123.481049,207.152374 
	C116.249832,208.082443 112.168388,215.495758 113.831978,222.808243 
	C127.477051,222.808243 141.236710,222.826599 154.995789,222.746384 
	C155.595535,222.742905 156.190002,221.834793 156.878159,220.520508 
M144.396667,245.011032 
	C146.054855,245.004044 147.719254,245.087311 149.370102,244.973724 
	C155.097809,244.579605 157.294601,241.602783 156.219696,235.204620 
	C143.567444,235.204620 130.828354,235.137375 118.091789,235.285995 
	C116.418182,235.305527 114.757454,236.429474 113.090759,237.041885 
	C114.004944,239.233307 114.459877,241.858841 115.985222,243.472565 
	C117.113289,244.665985 119.627472,244.899399 121.537651,244.941116 
	C128.830582,245.100342 136.128998,245.008774 144.396667,245.011032 
M155.086594,226.003616 
	C141.619812,226.006058 128.151688,225.921677 114.688095,226.130569 
	C113.158127,226.154327 111.653717,227.825729 110.137459,228.733124 
	C111.632492,229.857452 113.109810,231.929657 114.625328,231.957993 
	C128.253586,232.212723 141.889603,232.185318 155.519943,231.995529 
	C156.943634,231.975708 158.345276,230.371170 159.757156,229.501892 
	C158.498672,228.338913 157.240189,227.175949 155.086594,226.003616 
M151.176392,190.400574 
	C150.082352,191.407761 148.988327,192.414948 147.894287,193.422134 
	C148.706512,194.290604 149.506744,195.901642 150.332809,195.914978 
	C160.958481,196.086761 171.588776,196.090256 182.214554,195.923584 
	C183.106232,195.909576 183.973862,194.363937 184.852676,193.529892 
	C183.986069,192.706329 183.232361,191.401825 182.227768,191.165970 
	C180.491669,190.758377 178.599884,191.002090 176.773300,190.993652 
	C167.087234,190.948959 168.019684,191.723862 167.921204,182.627808 
	C167.904221,181.059937 166.781235,179.504044 166.169128,177.942627 
	C164.581757,178.923157 164.264084,179.339218 164.205109,179.789185 
	C163.764542,183.149811 164.543823,188.141342 162.681290,189.481522 
	C160.214493,191.256454 155.694458,190.177841 151.176392,190.400574 
z"/>
<path fill="#FFA0A6" opacity="1.000000" stroke="none" 
	d="
M395.986908,189.665405 
	C396.359833,186.037872 395.364929,183.342438 392.602112,180.454758 
	C388.102692,175.751892 384.293854,170.278168 380.834015,164.730347 
	C378.601379,161.150391 377.707886,156.763260 375.855865,152.910110 
	C374.008362,149.066315 371.671356,145.460526 369.627930,141.707397 
	C367.728973,138.219666 365.955383,134.663895 364.085602,131.159958 
	C362.906830,128.950943 361.998444,126.467819 360.357758,124.663116 
	C357.280090,121.277718 355.563141,117.684601 355.943207,113.006584 
	C356.222595,109.567627 354.469147,106.629990 353.360291,103.483337 
	C351.496857,98.195381 346.447266,93.802635 347.909760,87.272835 
	C348.603149,84.177063 347.154022,81.643364 345.191345,78.801628 
	C343.292084,76.051704 343.887054,71.581879 343.375671,67.868973 
	C343.229431,66.807159 343.409210,65.145729 342.819214,64.791046 
	C339.355621,62.708782 340.052032,59.431370 340.003021,56.337639 
	C339.948730,52.912342 340.618134,49.415657 337.021362,46.898327 
	C336.065460,46.229301 336.068176,43.851055 336.043091,42.251118 
	C335.941376,35.765232 336.204834,29.268305 335.935181,22.792038 
	C335.720123,17.627014 334.743988,12.495073 334.489624,7.329540 
	C334.399323,5.495647 335.440948,3.606019 335.982910,1.370918 
	C383.687561,1.000000 431.375122,1.000000 479.531342,1.452927 
	C480.328461,5.699798 480.743866,9.488562 480.970276,13.288587 
	C481.937103,29.516569 486.323242,44.941895 492.038116,60.026062 
	C501.510101,85.026817 516.823975,106.172401 536.078308,124.404228 
	C548.543762,136.207779 562.804626,145.819641 578.382507,153.066513 
	C602.241516,164.165756 627.323425,170.422974 653.885132,170.475098 
	C653.956299,196.200729 654.004944,221.460739 653.988770,246.720703 
	C653.973694,270.150208 653.889404,293.579681 653.835571,317.009155 
	C649.197510,317.018341 644.062256,318.326355 640.020081,316.778992 
	C630.186829,313.014832 620.179016,314.514099 610.235291,313.834900 
	C607.713440,313.662689 605.268799,312.239380 602.810303,311.332153 
	C602.044922,311.049744 601.361450,310.259277 600.622681,310.234650 
	C591.734375,309.938446 582.839661,309.874084 574.497742,306.043274 
	C572.018188,304.904602 569.341125,304.191956 566.744690,303.313446 
	C565.363892,302.846283 563.948669,302.033020 562.571533,302.077179 
	C554.934326,302.321991 548.583984,299.082672 542.439880,295.107635 
	C541.635925,294.587555 540.619812,294.100128 539.701538,294.099335 
	C533.085999,294.093628 528.140564,290.064240 522.652039,287.286407 
	C518.760193,285.316711 514.675964,283.730682 510.714294,281.894348 
	C507.328186,280.324768 503.658264,279.098114 500.704407,276.919189 
	C493.701935,271.753784 485.000000,269.632629 478.636047,263.001251 
	C474.498810,258.690155 468.015594,256.630615 462.584503,253.560471 
	C462.296082,253.397415 461.811493,253.260193 461.764496,253.037766 
	C460.076874,245.050781 449.864258,245.986359 447.076660,239.041794 
	C446.704285,238.114120 444.903290,237.357315 443.695953,237.243683 
	C440.217865,236.916336 438.336304,235.481033 437.682587,231.825455 
	C437.478302,230.683182 435.018341,229.944275 433.205078,228.593430 
	C432.837433,224.440720 435.778503,224.618607 437.737091,225.341125 
	C439.201721,225.881424 440.396606,228.016693 441.043854,229.698700 
	C441.925964,231.991287 441.790985,234.978516 445.468048,234.405899 
	C449.191833,233.826019 448.967499,231.304443 448.460114,228.367844 
	C446.537170,217.238464 444.631104,206.100891 443.068115,194.917542 
	C442.542633,191.157990 441.055817,189.727036 437.323181,189.825516 
	C433.907867,189.915619 431.308136,190.013489 430.688141,194.502335 
	C429.462585,203.376328 427.646179,212.168732 426.074097,220.994873 
	C425.533112,220.648636 424.522247,220.304626 424.520569,219.955795 
	C424.487762,213.066483 419.124390,213.756531 414.524231,212.662781 
	C414.999512,209.985580 416.069824,207.694229 416.391937,205.302139 
	C417.698944,195.595764 412.646973,189.947266 402.891876,189.880020 
	C400.589844,189.864151 398.288544,189.739838 395.986908,189.665405 
M472.986420,209.369217 
	C472.237671,212.128922 471.561554,210.407837 471.085419,209.286423 
	C468.941833,204.237854 467.134705,199.020920 464.619659,194.168762 
	C463.681274,192.358414 461.144287,191.376678 459.336273,190.017105 
	C458.330231,191.847763 456.496735,193.659073 456.453369,195.512268 
	C456.184998,206.981766 456.351379,218.460815 456.295441,229.936325 
	C456.282562,232.576004 456.787018,234.659073 459.933441,234.707550 
	C463.335663,234.759949 463.932251,232.599167 463.869812,229.723297 
	C463.756531,224.505783 463.837708,219.284027 463.837708,214.064041 
	C465.572052,215.274384 466.320007,216.659348 466.922180,218.105026 
	C468.839325,222.707626 470.514435,227.424881 472.704742,231.891022 
	C473.331055,233.168076 475.761993,234.751038 476.703217,234.402985 
	C478.107544,233.883667 479.821350,231.794250 479.850555,230.341629 
	C480.097717,218.039276 480.090820,205.727783 479.835449,193.425781 
	C479.810669,192.232376 477.593933,191.084457 476.394745,189.915436 
	C475.264252,191.152679 473.262115,192.321381 473.158478,193.639374 
	C472.768463,198.598404 472.996887,203.606079 472.986420,209.369217 
M521.032837,225.416992 
	C521.085999,235.510361 519.942871,234.906448 530.341309,234.899353 
	C531.337891,234.898666 532.334656,234.885773 533.330994,234.901184 
	C536.076416,234.943649 538.824829,235.118301 538.944824,231.127884 
	C539.063110,227.190979 536.538635,226.923859 533.649719,227.109619 
	C530.653442,227.302292 528.157349,226.881531 528.697998,222.977173 
	C529.090881,220.139282 526.846802,215.843567 532.750305,215.839859 
	C533.845459,215.839172 535.939819,213.636520 535.800598,212.719101 
	C535.588318,211.320312 533.881287,209.141388 532.719238,209.083130 
	C529.275146,208.910477 528.643738,207.297089 528.624512,204.327728 
	C528.581970,197.768799 528.490479,197.911575 535.385620,196.866013 
	C536.675842,196.670364 538.790833,194.628311 538.634094,193.793243 
	C538.363342,192.350174 536.759766,190.298553 535.450623,190.078644 
	C532.218567,189.535812 528.826782,190.041229 525.517273,189.835754 
	C521.973328,189.615753 520.920288,191.157394 520.973022,194.540009 
	C521.128296,204.503479 521.031067,214.470901 521.032837,225.416992 
M486.245575,193.473648 
	C487.313995,200.347443 493.521484,194.943573 496.951752,198.464508 
	C496.951752,199.455673 496.951447,201.244888 496.951813,203.034088 
	C496.953674,212.027542 497.017365,221.021683 496.920227,230.014053 
	C496.890930,232.726624 497.466705,234.704056 500.589996,234.664734 
	C503.788849,234.624496 504.179260,232.460526 504.091187,229.849869 
	C503.978882,226.522797 504.068451,223.188980 504.068787,219.858063 
	C504.069611,212.420547 504.069031,204.983032 504.069031,196.994308 
	C506.773407,196.994308 508.736664,196.903885 510.688324,197.015930 
	C513.483337,197.176376 515.081970,195.666565 514.524841,193.205063 
	C514.225769,191.883728 512.114441,190.103958 510.749268,190.039169 
	C503.936310,189.715958 497.093719,189.745590 490.276276,190.018280 
	C488.916595,190.072693 487.621002,191.728088 486.245575,193.473648 
z"/>
<path fill="#FF9198" opacity="1.000000" stroke="none" 
	d="
M53.531342,1.000000 
	C55.306442,20.025427 56.228657,39.087475 58.037426,58.065025 
	C59.562645,74.067551 61.371124,90.116089 64.416267,105.881172 
	C67.777702,123.283737 72.088577,140.563492 77.084442,157.574112 
	C83.019173,177.781509 88.866577,198.175980 97.033134,217.526596 
	C107.803909,243.047897 120.175392,267.956970 133.052200,292.503143 
	C141.197327,308.029663 150.812057,322.921539 161.043777,337.182495 
	C173.683151,354.799347 187.442032,371.632385 201.124161,388.473450 
	C207.920288,396.838684 215.655182,404.438629 222.883957,412.458191 
	C223.828613,413.506195 224.286636,414.992859 224.985046,416.638184 
	C150.380493,417.000000 75.760979,417.000000 1.070736,417.000000 
	C1.070736,278.333344 1.070736,139.666672 1.070736,1.000000 
	C18.417881,1.000000 35.740280,1.000000 53.531342,1.000000 
z"/>
<path fill="#FFA4AB" opacity="1.000000" stroke="none" 
	d="
M653.834351,170.009445 
	C627.323425,170.422974 602.241516,164.165756 578.382507,153.066513 
	C562.804626,145.819641 548.543762,136.207779 536.078308,124.404228 
	C516.823975,106.172401 501.510101,85.026817 492.038116,60.026062 
	C486.323242,44.941895 481.937103,29.516569 480.970276,13.288587 
	C480.743866,9.488562 480.328461,5.699798 480.000000,1.452927 
	C537.354248,1.000000 594.708435,1.000000 652.600220,1.412531 
	C653.419067,4.285391 653.941589,6.745333 653.945557,9.206103 
	C654.003418,45.163815 654.010071,81.121643 653.989624,117.079422 
	C653.979614,134.722778 653.888672,152.366104 653.834351,170.009445 
z"/>
<path fill="#FFFEFE" opacity="1.000000" stroke="none" 
	d="
M653.885132,170.475098 
	C653.888672,152.366104 653.979614,134.722778 653.989624,117.079422 
	C654.010071,81.121643 654.003418,45.163815 653.945557,9.206103 
	C653.941589,6.745333 653.419067,4.285391 653.068848,1.412531 
	C653.666687,1.333333 654.783630,1.548021 654.908997,2.023973 
	C655.196411,3.114913 655.000000,4.333333 655.000000,5.500000 
	C655.000000,142.666672 655.000000,279.833344 654.500000,417.000000 
	C653.979614,383.980103 653.959229,350.960236 653.887207,317.474731 
	C653.889404,293.579681 653.973694,270.150208 653.988770,246.720703 
	C654.004944,221.460739 653.956299,196.200729 653.885132,170.475098 
z"/>
<path fill="#FFFDFD" opacity="1.000000" stroke="none" 
	d="
M395.578308,189.782043 
	C398.288544,189.739838 400.589844,189.864151 402.891876,189.880020 
	C412.646973,189.947266 417.698944,195.595764 416.391937,205.302139 
	C416.069824,207.694229 414.999512,209.985580 414.109528,212.653015 
	C411.088715,214.549622 410.548981,216.587311 412.068329,219.582428 
	C413.640656,222.681961 415.024017,225.949158 415.896667,229.297638 
	C416.261963,230.699234 415.098267,232.499283 414.629669,234.118179 
	C412.874023,233.458832 410.235321,233.298248 409.528381,232.046600 
	C407.414825,228.304611 406.143951,224.096252 404.355011,220.155807 
	C403.786438,218.903427 402.625183,217.920090 401.735107,216.813644 
	C401.181458,216.982834 400.627808,217.152023 400.074158,217.321228 
	C400.074158,221.534698 400.002533,225.749832 400.100586,229.961029 
	C400.161133,232.560226 399.821838,234.715668 396.583313,234.766434 
	C393.402069,234.816299 392.881989,232.831024 392.898682,230.134796 
	C392.972961,218.136429 392.853577,206.136261 393.025299,194.139923 
	C393.045685,192.716217 394.421936,191.311935 395.578308,189.782043 
M400.144409,207.114746 
	C401.861267,210.678757 405.951599,210.010574 406.996704,208.476883 
	C408.575439,206.160156 409.231995,202.178375 408.389404,199.498840 
	C407.216827,195.769974 403.494202,196.887634 400.080963,197.656754 
	C400.080963,200.667664 400.080963,203.440842 400.144409,207.114746 
z"/>
<path fill="#FFFCFD" opacity="1.000000" stroke="none" 
	d="
M334.827301,190.451599 
	C336.347229,190.155823 337.511353,190.128448 338.659607,189.978897 
	C342.876282,189.429642 344.763458,190.835953 345.369690,195.481949 
	C346.786011,206.335861 349.097046,217.070480 350.728119,227.901245 
	C351.019867,229.838364 350.435822,233.022110 349.125244,233.858719 
	C346.202942,235.724197 344.281738,233.980667 343.769714,230.559860 
	C343.381897,227.968994 343.123169,225.325027 339.156738,225.452133 
	C335.305389,225.575577 335.425812,228.069046 334.579437,230.656235 
	C334.079559,232.184204 331.839661,233.142929 330.382233,234.357666 
	C329.327820,232.976593 327.206909,231.439011 327.383087,230.238556 
	C329.262909,217.429520 331.500732,204.672913 333.675293,191.907867 
	C333.751343,191.461395 334.192963,191.077164 334.827301,190.451599 
M338.149048,208.178726 
	C337.824615,210.146973 337.499176,212.115051 337.176025,214.083496 
	C336.603882,217.568787 337.881836,218.743500 341.679230,217.298126 
	C341.029480,213.272659 340.385895,209.285217 339.548035,204.094299 
	C338.832245,205.977036 338.549622,206.720383 338.149048,208.178726 
z"/>
<path fill="#FFFDFD" opacity="1.000000" stroke="none" 
	d="
M426.070892,221.405457 
	C427.646179,212.168732 429.462585,203.376328 430.688141,194.502335 
	C431.308136,190.013489 433.907867,189.915619 437.323181,189.825516 
	C441.055817,189.727036 442.542633,191.157990 443.068115,194.917542 
	C444.631104,206.100891 446.537170,217.238464 448.460114,228.367844 
	C448.967499,231.304443 449.191833,233.826019 445.468048,234.405899 
	C441.790985,234.978516 441.925964,231.991287 441.043854,229.698700 
	C440.396606,228.016693 439.201721,225.881424 437.737091,225.341125 
	C435.778503,224.618607 432.837433,224.440720 432.810730,228.573547 
	C432.314819,230.382904 432.170929,232.107239 431.243134,233.095963 
	C430.319092,234.080627 428.269226,235.115295 427.323761,234.708511 
	C425.977478,234.129288 424.303680,232.229996 424.339020,230.937561 
	C424.422607,227.883575 425.432404,224.854935 426.070892,221.405457 
M436.544006,205.346161 
	C435.777313,209.340103 435.010590,213.334045 434.248749,217.302643 
	C437.890167,218.619644 439.404114,217.746094 438.840179,214.402100 
	C438.345398,211.468231 437.661194,208.566299 436.544006,205.346161 
z"/>
<path fill="#FFFDFD" opacity="1.000000" stroke="none" 
	d="
M383.906647,220.556122 
	C382.132996,230.282394 377.026703,235.473816 370.331818,234.782516 
	C363.589996,234.086365 359.132416,227.914200 359.019531,218.850433 
	C358.920013,210.860687 359.010773,202.868729 358.977386,194.877914 
	C358.966492,192.266815 358.778687,189.882095 362.669312,189.931931 
	C366.702454,189.983627 366.128845,192.651703 366.139648,195.091415 
	C366.169098,201.750397 366.125458,208.409760 366.165710,215.068634 
	C366.176758,216.892822 365.932526,218.904999 366.602661,220.494858 
	C367.596680,222.853012 369.301453,224.911545 370.703674,227.097626 
	C372.606598,224.890457 375.947205,222.810516 376.155792,220.453430 
	C376.930664,211.696609 376.808167,202.847687 376.745941,194.035309 
	C376.717987,190.079041 378.868652,189.267014 381.761658,190.324722 
	C382.876770,190.732407 383.846924,193.128174 383.879974,194.640076 
	C384.065521,203.125854 383.944885,211.618317 383.906647,220.556122 
z"/>
<path fill="#FFFCFC" opacity="1.000000" stroke="none" 
	d="
M276.425323,234.761688 
	C270.870544,232.896576 267.317047,229.739578 267.205383,223.447052 
	C270.202850,221.826202 272.827850,221.170151 274.928711,224.781647 
	C275.553497,225.855667 277.770935,226.003220 279.258606,226.575302 
	C279.718781,224.828079 281.121368,222.483643 280.463226,221.445084 
	C278.451019,218.269760 275.407806,215.766098 273.216400,212.680984 
	C270.962311,209.507629 268.505890,206.165451 267.471436,202.518875 
	C266.227173,198.132690 267.829407,193.727844 272.050018,191.347748 
	C275.985107,189.128677 280.636597,188.500153 284.212463,191.677567 
	C286.057373,193.316895 286.415375,196.629593 287.445221,199.186203 
	C285.085571,198.815826 282.725342,198.449188 280.366547,198.073547 
	C279.143158,197.878738 277.538666,197.100021 276.794006,197.603058 
	C275.781616,198.286972 274.608307,200.266541 274.945160,201.124725 
	C275.933960,203.643692 277.428040,206.045166 279.108459,208.191879 
	C281.345673,211.049942 284.381836,213.346786 286.306335,216.373352 
	C291.856140,225.101242 287.178650,233.926743 276.425323,234.761688 
z"/>
<path fill="#FFFDFD" opacity="1.000000" stroke="none" 
	d="
M253.400726,197.113708 
	C250.446304,196.715103 248.762192,197.201752 248.956009,200.362488 
	C249.115417,202.961868 248.988556,205.578812 248.988556,207.725143 
	C251.744507,209.960846 256.724548,206.949921 256.716766,212.239594 
	C256.709381,217.251007 252.366409,215.520538 249.363251,216.492432 
	C249.363251,219.674393 249.363251,222.906754 249.363251,226.750916 
	C251.571381,226.871689 253.966003,226.554947 256.000305,227.267227 
	C257.418274,227.763702 259.269867,229.696945 259.235291,230.941391 
	C259.198059,232.282227 257.230591,233.611374 256.002014,234.842621 
	C255.750214,235.094940 255.041153,234.884232 254.543198,234.898697 
	C241.779648,235.269394 241.779938,235.269653 241.779449,222.523727 
	C241.779114,213.721130 242.100479,204.902130 241.654694,196.122131 
	C241.391541,190.939423 243.195877,189.091660 248.547546,189.689911 
	C250.621185,189.700790 252.252502,189.820099 253.885941,189.871490 
	C256.448486,189.952118 259.421906,189.261490 259.364380,193.450333 
	C259.308380,197.527420 256.389648,196.980927 253.400726,197.113708 
z"/>
<path fill="#FFFDFD" opacity="1.000000" stroke="none" 
	d="
M304.079407,226.836914 
	C304.079529,216.896393 304.079529,207.434845 304.079529,197.347000 
	C301.526062,197.218079 299.139404,197.538437 297.098938,196.843079 
	C295.685242,196.361328 294.116943,194.604004 293.835785,193.176666 
	C293.667236,192.321182 295.805054,190.092270 296.971985,190.043182 
	C304.106049,189.743179 311.264587,189.746399 318.399963,190.028580 
	C319.609253,190.076401 321.822601,192.152939 321.681213,192.961487 
	C321.424133,194.431442 319.922058,196.581696 318.634399,196.823563 
	C311.729126,198.120651 311.696381,197.947495 311.695740,205.057922 
	C311.695038,213.035629 311.679413,221.013367 311.702942,228.990997 
	C311.710999,231.722412 311.966675,234.626816 308.030792,234.706055 
	C303.777130,234.791672 303.972870,231.736511 304.076630,228.811600 
	C304.094299,228.313629 304.079224,227.814484 304.079407,226.836914 
z"/>
<path fill="#FFFDFD" opacity="1.000000" stroke="none" 
	d="
M181.359741,200.351562 
	C180.327286,213.637329 179.057800,226.522690 178.079147,239.430115 
	C177.776550,243.421051 176.191650,245.093887 172.189774,244.926804 
	C167.733109,244.740707 163.262650,244.884171 157.940353,244.884171 
	C159.568420,240.012955 161.027588,235.777130 162.380783,231.507721 
	C162.722183,230.430527 163.108994,229.135025 162.818588,228.129364 
	C161.326157,222.961105 159.800613,217.786087 157.895966,212.761505 
	C157.167419,210.839554 155.233597,209.410080 154.149292,207.578430 
	C152.776794,205.259949 151.710541,202.760193 150.324707,199.959686 
	C161.566544,199.959686 171.400665,199.959686 181.359741,200.351562 
z"/>
<path fill="#FFFDFD" opacity="1.000000" stroke="none" 
	d="
M210.613647,190.143799 
	C213.376495,190.029282 215.708191,190.096039 218.028824,189.965942 
	C222.888885,189.693481 227.408081,190.121353 229.987656,195.094437 
	C232.959137,200.823090 233.529572,206.995255 229.646942,212.070160 
	C226.714066,215.903625 227.213287,218.762527 228.977661,222.368042 
	C230.070602,224.601456 231.280106,226.899017 231.698853,229.296738 
	C231.959488,230.789062 230.841614,232.522141 230.342377,234.147156 
	C228.601654,233.505722 225.990311,233.362198 225.284882,232.128708 
	C223.240463,228.553848 222.049973,224.501129 220.336884,220.720886 
	C219.688675,219.290482 218.527664,218.092484 217.600403,216.788544 
	C217.040283,216.955704 216.480179,217.122864 215.920059,217.290024 
	C215.920059,221.491730 215.803757,225.697739 215.959244,229.893692 
	C216.070511,232.895844 215.185547,234.802902 211.886581,234.716125 
	C208.745743,234.633530 208.260117,232.561584 208.273605,229.923935 
	C208.333084,218.288330 208.225967,206.651306 208.380432,195.017471 
	C208.401703,193.415955 209.550629,191.829407 210.613647,190.143799 
M221.890900,197.215271 
	C220.124985,197.215271 218.359085,197.215271 215.923706,197.215271 
	C215.923706,200.639679 215.663193,203.756287 216.063278,206.785660 
	C216.205612,207.863495 218.093109,209.638046 218.937057,209.506805 
	C220.806534,209.216125 223.493149,208.342026 224.098175,206.947388 
	C225.447083,203.838043 226.086075,200.202332 221.890900,197.215271 
z"/>
<path fill="#FFFAFB" opacity="1.000000" stroke="none" 
	d="
M156.832550,220.934280 
	C156.190002,221.834793 155.595535,222.742905 154.995789,222.746384 
	C141.236710,222.826599 127.477051,222.808243 113.831978,222.808243 
	C112.168388,215.495758 116.249832,208.082443 123.481049,207.152374 
	C130.958298,206.190659 138.770065,206.197159 146.232834,207.236038 
	C153.063278,208.186874 156.326538,213.670502 156.832550,220.934280 
z"/>
<path fill="#FFFAFB" opacity="1.000000" stroke="none" 
	d="
M143.911011,245.010956 
	C136.128998,245.008774 128.830582,245.100342 121.537651,244.941116 
	C119.627472,244.899399 117.113289,244.665985 115.985222,243.472565 
	C114.459877,241.858841 114.004944,239.233307 113.090759,237.041901 
	C114.757454,236.429474 116.418182,235.305527 118.091789,235.285995 
	C130.828354,235.137375 143.567444,235.204620 156.219696,235.204620 
	C157.294601,241.602783 155.097809,244.579605 149.370102,244.973724 
	C147.719254,245.087311 146.054855,245.004044 143.911011,245.010956 
z"/>
<path fill="#FFFEFE" opacity="1.000000" stroke="none" 
	d="
M155.534149,226.008301 
	C157.240189,227.175949 158.498672,228.338913 159.757156,229.501892 
	C158.345276,230.371170 156.943634,231.975708 155.519943,231.995529 
	C141.889603,232.185318 128.253586,232.212723 114.625328,231.957993 
	C113.109810,231.929657 111.632492,229.857452 110.137459,228.733124 
	C111.653717,227.825729 113.158127,226.154327 114.688095,226.130569 
	C128.151688,225.921677 141.619812,226.006058 155.534149,226.008301 
z"/>
<path fill="#FFFDFD" opacity="1.000000" stroke="none" 
	d="
M151.616608,190.363068 
	C155.694458,190.177841 160.214493,191.256454 162.681290,189.481522 
	C164.543823,188.141342 163.764542,183.149811 164.205109,179.789185 
	C164.264084,179.339218 164.581757,178.923157 166.169128,177.942627 
	C166.781235,179.504044 167.904221,181.059937 167.921204,182.627808 
	C168.019684,191.723862 167.087234,190.948959 176.773300,190.993652 
	C178.599884,191.002090 180.491669,190.758377 182.227768,191.165970 
	C183.232361,191.401825 183.986069,192.706329 184.852676,193.529892 
	C183.973862,194.363937 183.106232,195.909576 182.214554,195.923584 
	C171.588776,196.090256 160.958481,196.086761 150.332809,195.914978 
	C149.506744,195.901642 148.706512,194.290604 147.894287,193.422134 
	C148.988327,192.414948 150.082352,191.407761 151.616608,190.363068 
z"/>
<path fill="#FFFDFD" opacity="1.000000" stroke="none" 
	d="
M472.990051,208.982376 
	C472.996887,203.606079 472.768463,198.598404 473.158478,193.639374 
	C473.262115,192.321381 475.264252,191.152679 476.394714,189.915436 
	C477.593933,191.084457 479.810669,192.232376 479.835449,193.425781 
	C480.090820,205.727783 480.097717,218.039276 479.850555,230.341629 
	C479.821350,231.794250 478.107544,233.883667 476.703217,234.402985 
	C475.761993,234.751038 473.331055,233.168076 472.704742,231.891022 
	C470.514435,227.424881 468.839325,222.707626 466.922180,218.105026 
	C466.320007,216.659348 465.572052,215.274384 463.837708,214.064041 
	C463.837708,219.284027 463.756531,224.505783 463.869812,229.723297 
	C463.932251,232.599167 463.335663,234.759949 459.933441,234.707550 
	C456.787018,234.659073 456.282562,232.576004 456.295441,229.936325 
	C456.351379,218.460815 456.184998,206.981766 456.453369,195.512268 
	C456.496735,193.659073 458.330231,191.847763 459.336273,190.017105 
	C461.144287,191.376678 463.681274,192.358414 464.619659,194.168762 
	C467.134705,199.020920 468.941833,204.237854 471.085419,209.286423 
	C471.561554,210.407837 472.237671,212.128922 472.990051,208.982376 
z"/>
<path fill="#FFFCFD" opacity="1.000000" stroke="none" 
	d="
M521.032715,224.926880 
	C521.031067,214.470901 521.128296,204.503479 520.973022,194.540009 
	C520.920288,191.157394 521.973328,189.615753 525.517273,189.835754 
	C528.826782,190.041229 532.218567,189.535812 535.450623,190.078644 
	C536.759766,190.298553 538.363342,192.350174 538.634094,193.793243 
	C538.790833,194.628311 536.675842,196.670364 535.385620,196.866013 
	C528.490479,197.911575 528.581970,197.768799 528.624512,204.327728 
	C528.643738,207.297089 529.275146,208.910477 532.719238,209.083130 
	C533.881287,209.141388 535.588318,211.320312 535.800598,212.719101 
	C535.939819,213.636520 533.845459,215.839172 532.750305,215.839859 
	C526.846802,215.843567 529.090881,220.139282 528.697998,222.977173 
	C528.157349,226.881531 530.653442,227.302292 533.649719,227.109619 
	C536.538635,226.923859 539.063110,227.190979 538.944824,231.127884 
	C538.824829,235.118301 536.076416,234.943649 533.330994,234.901184 
	C532.334656,234.885773 531.337891,234.898666 530.341309,234.899353 
	C519.942871,234.906448 521.085999,235.510361 521.032715,224.926880 
z"/>
<path fill="#FFFEFE" opacity="1.000000" stroke="none" 
	d="
M486.270721,193.059448 
	C487.621002,191.728088 488.916595,190.072693 490.276276,190.018280 
	C497.093719,189.745590 503.936310,189.715958 510.749268,190.039169 
	C512.114441,190.103958 514.225769,191.883728 514.524841,193.205063 
	C515.081970,195.666565 513.483337,197.176376 510.688324,197.015930 
	C508.736664,196.903885 506.773407,196.994308 504.069031,196.994308 
	C504.069031,204.983032 504.069611,212.420547 504.068787,219.858063 
	C504.068451,223.188980 503.978882,226.522797 504.091187,229.849869 
	C504.179260,232.460526 503.788849,234.624496 500.589996,234.664734 
	C497.466705,234.704056 496.890930,232.726624 496.920227,230.014053 
	C497.017365,221.021683 496.953674,212.027542 496.951813,203.034088 
	C496.951447,201.244888 496.951752,199.455673 496.951752,198.464508 
	C493.521484,194.943573 487.313995,200.347443 486.270721,193.059448 
z"/>
<path fill="#FFA0A6" opacity="1.000000" stroke="none" 
	d="
M400.112671,206.664368 
	C400.080963,203.440842 400.080963,200.667664 400.080963,197.656754 
	C403.494202,196.887634 407.216827,195.769974 408.389404,199.498840 
	C409.231995,202.178375 408.575439,206.160156 406.996704,208.476883 
	C405.951599,210.010574 401.861267,210.678757 400.112671,206.664368 
z"/>
<path fill="#FFA4AB" opacity="1.000000" stroke="none" 
	d="
M338.208008,207.821228 
	C338.549622,206.720383 338.832245,205.977036 339.548035,204.094299 
	C340.385895,209.285217 341.029480,213.272659 341.679230,217.298126 
	C337.881836,218.743500 336.603882,217.568787 337.176025,214.083496 
	C337.499176,212.115051 337.824615,210.146973 338.208008,207.821228 
z"/>
<path fill="#FFA4AB" opacity="1.000000" stroke="none" 
	d="
M436.802368,205.498215 
	C437.661194,208.566299 438.345398,211.468231 438.840179,214.402100 
	C439.404114,217.746094 437.890167,218.619644 434.248749,217.302643 
	C435.010590,213.334045 435.777313,209.340103 436.802368,205.498215 
z"/>
<path fill="#FF9BA2" opacity="1.000000" stroke="none" 
	d="
M222.285248,197.366455 
	C226.086075,200.202332 225.447083,203.838043 224.098175,206.947388 
	C223.493149,208.342026 220.806534,209.216125 218.937057,209.506805 
	C218.093109,209.638046 216.205612,207.863495 216.063278,206.785660 
	C215.663193,203.756287 215.923706,200.639679 215.923706,197.215271 
	C218.359085,197.215271 220.124985,197.215271 222.285248,197.366455 
z"/>
</svg>